<svg id="svg" xmlns="http://www.w3.org/2000/svg" width="400" height="83.14606741573034"
     viewBox="0, 0, 400,83.14606741573034"><g id="svgg"><path id="path0" d="M0.375 41.511 L 0.375 82.772 200.187 82.772 L 400.000 82.772 400.000 41.511 L 400.000 0.250 200.187 0.250 L 0.375 0.250 0.375 41.511 M391.573 4.432 C 393.564 4.533,395.208 4.616,395.225 4.617 C 395.242 4.618,395.256 21.164,395.256 41.386 L 395.256 78.152 200.187 78.152 L 5.119 78.152 5.119 41.323 L 5.119 4.494 26.685 4.478 C 38.547 4.469,48.898 4.422,49.688 4.375 C 52.894 4.181,387.700 4.237,391.573 4.432 M35.331 18.176 C 35.091 18.203,34.276 18.285,33.521 18.357 C 25.164 19.154,19.829 23.787,19.799 30.275 C 19.767 37.072,23.663 39.711,37.953 42.570 C 45.160 44.012,46.997 44.624,48.954 46.239 C 53.415 49.918,52.008 57.121,46.344 59.599 C 37.749 63.361,27.977 61.365,22.524 54.735 L 21.472 53.456 20.006 54.076 C 19.199 54.417,18.500 54.734,18.452 54.782 C 18.306 54.927,19.891 57.176,20.914 58.274 C 26.707 64.497,37.972 66.490,47.132 62.914 C 53.877 60.280,56.805 52.826,53.577 46.504 C 51.723 42.872,48.069 41.223,36.704 38.892 C 26.312 36.761,23.402 34.874,23.412 30.275 C 23.425 24.419,29.064 20.997,38.265 21.261 C 43.927 21.424,47.250 22.827,49.963 26.201 C 50.384 26.725,50.774 27.205,50.829 27.269 C 50.887 27.335,51.464 27.027,52.191 26.544 L 53.453 25.704 53.239 25.367 C 50.749 21.454,47.363 19.377,41.885 18.403 C 40.813 18.213,36.362 18.058,35.331 18.176 M175.406 22.534 L 175.406 26.342 182.584 26.342 L 189.763 26.342 189.763 45.194 L 189.763 64.045 194.007 64.045 L 198.252 64.045 198.252 45.194 L 198.252 26.342 205.495 26.342 L 212.738 26.342 212.705 22.566 L 212.672 18.789 194.039 18.757 L 175.406 18.726 175.406 22.534 M303.496 27.466 C 303.496 32.203,303.465 36.080,303.427 36.080 C 303.389 36.080,303.045 35.743,302.664 35.330 C 299.292 31.688,292.681 30.412,286.579 32.225 C 276.022 35.361,273.067 52.347,281.683 60.366 C 284.910 63.370,288.143 64.608,292.759 64.606 C 297.403 64.604,300.074 63.444,302.916 60.195 C 303.505 59.521,303.451 59.434,303.678 61.430 C 303.783 62.353,303.903 63.320,303.943 63.579 L 304.018 64.049 307.596 64.016 L 311.174 63.983 311.205 41.417 L 311.237 18.851 307.366 18.851 L 303.496 18.851 303.496 27.466 M67.915 22.410 C 67.263 22.499,66.715 22.578,66.698 22.585 C 66.681 22.591,66.667 24.703,66.667 27.278 L 66.667 31.960 63.358 31.960 L 60.050 31.960 60.049 32.366 C 60.049 32.589,60.012 33.151,59.969 33.614 L 59.889 34.457 63.215 34.457 C 66.295 34.457,66.543 34.473,66.556 34.675 C 66.564 34.796,66.610 39.838,66.659 45.880 L 66.748 56.866 67.080 58.115 C 68.615 63.893,73.769 65.904,80.471 63.339 C 81.118 63.091,81.648 62.845,81.648 62.793 C 81.648 62.741,81.477 62.297,81.269 61.807 C 81.060 61.317,80.839 60.782,80.776 60.618 L 80.663 60.320 79.459 60.682 C 74.121 62.284,71.203 61.275,70.128 57.452 C 69.862 56.506,69.857 56.329,69.817 45.474 L 69.776 34.457 75.217 34.457 L 80.658 34.457 80.622 33.240 L 80.587 32.022 75.189 31.990 L 69.791 31.957 69.758 27.121 L 69.725 22.285 69.413 22.266 C 69.242 22.256,68.567 22.321,67.915 22.410 M156.742 22.415 C 156.192 22.505,155.729 22.582,155.712 22.587 C 155.694 22.593,155.680 24.703,155.680 27.278 L 155.680 31.960 152.185 31.960 L 148.689 31.960 148.689 33.208 L 148.689 34.457 152.178 34.457 L 155.668 34.457 155.715 45.225 C 155.749 53.022,155.804 56.245,155.916 56.909 C 156.374 59.619,157.122 61.379,158.257 62.417 C 160.945 64.873,166.234 65.091,170.305 62.912 C 170.492 62.812,169.892 61.066,169.454 60.439 C 169.436 60.412,168.703 60.609,167.825 60.875 C 164.243 61.965,161.127 61.389,159.744 59.380 C 158.600 57.720,158.552 57.126,158.552 44.791 L 158.552 34.457 163.983 34.457 L 169.413 34.457 169.413 33.208 L 169.413 31.960 163.983 31.960 L 158.552 31.960 158.552 27.091 L 158.552 22.222 158.146 22.237 C 157.923 22.245,157.291 22.325,156.742 22.415 M331.273 31.401 C 326.998 32.090,324.743 33.108,322.310 35.446 C 316.128 41.386,316.016 54.050,322.091 60.050 C 328.506 66.385,340.812 66.413,348.160 60.110 L 348.693 59.653 347.528 58.427 C 346.887 57.753,345.776 56.641,345.058 55.957 L 343.754 54.712 342.945 55.210 C 336.329 59.283,327.935 57.689,325.846 51.964 C 325.645 51.414,325.516 50.930,325.558 50.888 C 325.600 50.846,331.239 50.811,338.088 50.811 L 350.542 50.811 350.632 49.972 C 351.401 42.790,348.314 35.730,343.166 32.900 C 340.732 31.563,334.861 30.822,331.273 31.401 M225.718 31.416 C 223.161 31.790,222.023 32.122,221.026 32.784 C 220.394 33.203,219.272 34.317,218.696 35.096 C 218.307 35.622,218.289 35.591,218.054 33.989 C 217.935 33.182,217.810 32.424,217.775 32.303 C 217.716 32.102,217.434 32.085,214.161 32.085 L 210.612 32.085 210.612 48.067 L 210.612 64.049 214.388 64.016 L 218.165 63.983 218.240 55.119 C 218.321 45.666,218.343 45.328,218.972 43.666 C 220.664 39.194,226.532 37.690,231.227 40.524 C 231.614 40.758,231.979 40.949,232.039 40.949 C 232.145 40.948,233.985 37.552,235.142 35.223 L 235.722 34.055 235.445 33.850 C 233.048 32.075,228.680 30.982,225.718 31.416 M251.685 31.477 C 242.374 31.987,237.011 38.056,237.024 48.065 C 237.028 51.220,237.527 53.792,238.662 56.503 C 242.452 65.557,256.834 68.012,262.627 60.593 C 263.723 59.190,263.659 59.099,263.872 62.360 C 263.995 64.230,263.575 64.054,267.827 64.016 L 271.473 63.983 271.505 48.034 L 271.537 32.085 267.742 32.085 L 263.948 32.085 263.876 32.491 C 263.837 32.714,263.767 33.586,263.720 34.429 C 263.614 36.329,263.652 36.314,262.474 34.936 C 260.936 33.138,260.061 32.598,257.678 31.981 C 255.822 31.500,254.026 31.349,251.685 31.477 M371.785 31.413 C 368.190 31.865,367.033 32.441,365.386 34.601 C 364.566 35.676,364.620 35.702,364.369 34.114 C 364.253 33.375,364.128 32.616,364.091 32.426 L 364.024 32.081 360.258 32.114 L 356.492 32.147 356.492 48.065 L 356.492 63.983 360.487 63.983 L 364.482 63.983 364.548 54.744 C 364.622 44.417,364.581 44.895,365.564 42.879 C 367.437 39.038,372.542 37.906,377.100 40.321 L 378.232 40.921 379.958 37.495 L 381.684 34.069 381.399 33.857 C 378.929 32.027,374.950 31.015,371.785 31.413 M100.250 31.838 C 96.184 32.184,93.499 33.708,91.419 36.850 C 90.923 37.601,90.893 37.488,90.858 34.675 L 90.824 32.022 89.357 31.987 L 87.889 31.952 87.921 47.967 L 87.953 63.983 89.482 64.018 L 91.011 64.053 91.021 56.839 C 91.037 45.855,91.125 43.677,91.613 42.197 C 93.652 36.019,100.169 33.013,106.117 35.508 C 106.564 35.695,107.010 35.859,107.109 35.871 C 107.286 35.892,108.581 33.822,108.603 33.482 C 108.632 33.043,105.623 32.086,103.458 31.844 C 102.164 31.700,101.872 31.699,100.250 31.838 M125.593 31.792 C 113.396 32.954,107.232 47.872,114.789 57.941 C 121.333 66.661,133.795 66.698,140.325 58.017 C 140.957 57.176,140.949 57.141,140.949 60.596 C 140.949 64.370,140.792 64.066,142.714 64.018 L 144.132 63.983 144.132 48.002 L 144.132 32.022 142.617 31.988 L 141.101 31.953 141.010 34.249 C 140.961 35.512,140.960 37.002,141.010 37.561 C 141.120 38.803,140.970 38.881,140.325 37.918 C 137.243 33.314,132.093 31.173,125.593 31.792 M130.268 34.644 C 142.192 36.598,145.350 53.019,135.032 59.414 C 126.946 64.425,116.079 59.424,114.848 50.125 C 113.596 40.678,121.102 33.142,130.268 34.644 M336.354 38.137 C 339.163 38.560,341.125 39.751,342.221 41.698 C 342.562 42.304,343.196 43.840,343.196 44.060 C 343.196 44.217,325.768 44.258,325.680 44.101 C 325.609 43.976,326.722 42.066,327.351 41.233 C 328.588 39.595,331.006 38.331,333.384 38.080 C 334.756 37.935,335.056 37.941,336.354 38.137 M256.671 38.581 C 262.335 39.938,265.019 46.540,262.409 52.698 C 260.346 57.567,253.305 59.185,248.624 55.866 C 242.618 51.609,243.748 41.667,250.553 38.902 C 251.238 38.624,251.616 38.529,253.059 38.275 C 253.672 38.167,255.636 38.334,256.671 38.581 M295.818 38.879 C 298.140 39.488,300.864 41.618,301.905 43.639 C 305.666 50.935,298.935 59.141,291.061 56.859 C 286.187 55.447,283.991 51.627,284.758 45.899 C 285.424 40.932,290.752 37.550,295.818 38.879 " stroke="none" fill="#FFFFFF" fill-rule="evenodd"></path></g></svg>